<svg id="레이어_1" data-name="레이어 1" xmlns="http://www.w3.org/2000/svg" viewBox="0 0 285.25 35.4"><defs><style>.cls-1{fill:#204790;}.cls-2{fill:#1c4b98;}.cls-3{fill:#31acd2;}.cls-4{fill:#214790;}</style></defs><path class="cls-1" d="M40.58,19.05V16.67H46V13.59A5.42,5.42,0,0,1,44.62,13a4.6,4.6,0,0,1-1.15-1,4.13,4.13,0,0,1-.8-1.35A5,5,0,0,1,42.38,9a4.64,4.64,0,0,1,.2-1.35,4.19,4.19,0,0,1,.54-1.17H41.23V4.12H45.9V1.49h2.79V4.12h4.56V6.46H51.43A4.86,4.86,0,0,1,52,7.63,4.33,4.33,0,0,1,52.19,9a4.94,4.94,0,0,1-.28,1.73,4.12,4.12,0,0,1-.77,1.34A4.67,4.67,0,0,1,50,13a5.3,5.3,0,0,1-1.33.56v3c.51-.05,1-.12,1.58-.21s1.07-.2,1.6-.33a13.56,13.56,0,0,0,1.52-.51,8.32,8.32,0,0,0,1.36-.71v-13h2.7V9.53h3.32v2.38H57.45V23h-2.7V17.36a9.06,9.06,0,0,1-1.94.82,20,20,0,0,1-2.28.52,23.81,23.81,0,0,1-2.45.28c-.84.05-1.66.07-2.47.07ZM49.63,9A2.56,2.56,0,0,0,49,7.22a2.38,2.38,0,0,0-3.41,0A2.56,2.56,0,0,0,45,9a2.94,2.94,0,0,0,.17,1,2.55,2.55,0,0,0,.47.82,2.3,2.3,0,0,0,.74.56,2.28,2.28,0,0,0,1.91,0,2.3,2.3,0,0,0,.74-.56,2.55,2.55,0,0,0,.47-.82A2.71,2.71,0,0,0,49.63,9Z"/><path class="cls-1" d="M70.07,15.89a6.06,6.06,0,0,1-2.48-.48,5.64,5.64,0,0,1-1.85-1.31,5.78,5.78,0,0,1-1.15-1.89,6.49,6.49,0,0,1,0-4.54,5.68,5.68,0,0,1,1.15-1.89,5.59,5.59,0,0,1,1.85-1.29A6.06,6.06,0,0,1,70.07,4a6.15,6.15,0,0,1,2.47.48,5.49,5.49,0,0,1,1.85,1.29,5.7,5.7,0,0,1,1.16,1.89,6.64,6.64,0,0,1,0,4.54,5.81,5.81,0,0,1-1.16,1.89,5.54,5.54,0,0,1-1.85,1.31A6.15,6.15,0,0,1,70.07,15.89Zm3.12-6a4,4,0,0,0-.82-2.62,2.83,2.83,0,0,0-2.3-1,2.88,2.88,0,0,0-2.32,1,4,4,0,0,0-.83,2.62,4,4,0,0,0,.83,2.61,2.85,2.85,0,0,0,2.32,1,2.8,2.8,0,0,0,2.3-1A4,4,0,0,0,73.19,9.94Zm8.17,13H78.67V1.88h2.69Z"/><path class="cls-1" d="M105,18v2.38H85.88V18Zm-2.51-5.21v2.38H91.45a3.21,3.21,0,0,1-2.16-.68,2.28,2.28,0,0,1-.81-1.83v-9H102.2V6.12h-11V8.28H102v2.33H91.18v1.6c0,.41.21.62.65.62Z"/><path class="cls-1" d="M126.7,18v2.38H107.55V18ZM110.24,3.54H124V5.92H112.94v4.91a.68.68,0,0,0,.16.48.66.66,0,0,0,.49.18h10.87v2.38H113.21a3.55,3.55,0,0,1-2.16-.6,2,2,0,0,1-.81-1.74Z"/><path class="cls-1" d="M140.51,9h-7V10.3c0,.34.25.51.65.51h7.77V13h-8.17a3.65,3.65,0,0,1-2.15-.57,2,2,0,0,1-.79-1.72V6.66h7V5h-7V2.71h9.74Zm6.11,13.59H136.54a3.67,3.67,0,0,1-2.17-.59,2,2,0,0,1-.82-1.72V14.61h13.07Zm-2.69-2.38V17h-7.71v2.54a.57.57,0,0,0,.65.63Zm2.69-6.61h-2.69V1.88h2.69Z"/><path class="cls-1" d="M162.39,17.35a20.81,20.81,0,0,1-2.77-2.58,12.63,12.63,0,0,1-1.91-2.86,11.82,11.82,0,0,1-2,3.1,24.23,24.23,0,0,1-2.62,2.56l-1.87-1.91c.56-.46,1.09-.94,1.61-1.43a12.89,12.89,0,0,0,1.39-1.58,12,12,0,0,0,1.08-1.74A8.25,8.25,0,0,0,156,9a8.54,8.54,0,0,0,.17-1,8.06,8.06,0,0,0,.06-1h-4.07V4.62h4.18V1.92h2.87v2.7h4V7h-4a10.29,10.29,0,0,0,.2,1.93,8.18,8.18,0,0,0,.66,2,10.43,10.43,0,0,0,1.1,1.74,11.76,11.76,0,0,0,1.42,1.49c.52.46,1,.88,1.58,1.27Zm3-15.47H168V23h-2.69Z"/><path class="cls-1" d="M179.16,10.27v5.89c.51,0,1.1,0,1.78-.08s1.37-.14,2.06-.25a13.62,13.62,0,0,0,2-.46,6.54,6.54,0,0,0,1.59-.7V1.88h2.7V9.53h3.32v2.38h-3.32V23h-2.7V17a9.36,9.36,0,0,1-2,.79,17.83,17.83,0,0,1-2.46.5c-.87.12-1.75.21-2.65.26s-1.75.08-2.56.08H172.4V16.23h4.07v-6Zm5-6.78a57.52,57.52,0,0,1-.74,10L181,13.15c.21-1.35.36-2.62.46-3.81s.15-2.37.15-3.53h-7.82V3.49Z"/><path class="cls-1" d="M202.72,16.2a12.1,12.1,0,0,0,1.67-.11,17.45,17.45,0,0,0,1.73-.31,11.78,11.78,0,0,0,1.65-.52,8.57,8.57,0,0,0,1.42-.72V1.88h2.69V23h-2.69V17a8.8,8.8,0,0,1-1.92.81,19.28,19.28,0,0,1-2.24.51,23.2,23.2,0,0,1-2.4.25c-.83.05-1.64.07-2.45.07h-5.59V16.2Zm4.24-8a5.13,5.13,0,0,1-.42,2.11A4.88,4.88,0,0,1,205.37,12a5.24,5.24,0,0,1-1.77,1,6.64,6.64,0,0,1-2.23.36,6.57,6.57,0,0,1-2.28-.37,5.06,5.06,0,0,1-1.74-1.05,4.71,4.71,0,0,1-1.12-1.61,5.2,5.2,0,0,1-.41-2.07,5.24,5.24,0,0,1,.42-2.14,4.74,4.74,0,0,1,1.14-1.62,5.09,5.09,0,0,1,1.76-1,6.64,6.64,0,0,1,2.23-.36,6.74,6.74,0,0,1,2.31.38,5.22,5.22,0,0,1,1.77,1.06,4.49,4.49,0,0,1,1.12,1.61A5.44,5.44,0,0,1,207,8.23Zm-2.78,0a2.78,2.78,0,0,0-.77-2.1,2.82,2.82,0,0,0-2-.73,2.71,2.71,0,0,0-2.05.74,2.88,2.88,0,0,0-.71,2.09,2.7,2.7,0,0,0,.76,2.07,2.8,2.8,0,0,0,2,.72,2.84,2.84,0,0,0,2.08-.72A2.81,2.81,0,0,0,204.18,8.23Z"/><path class="cls-1" d="M221.27,16V13H216.6V10.88h5.94l1.68,0c.56,0,1.13-.07,1.7-.15a24.12,24.12,0,0,0,3.3-.54l.22,2.09a27.39,27.39,0,0,1-2.74.47,14,14,0,0,1-1.45.16l-1.49.09v3Zm6.67-10.24a3.42,3.42,0,0,1-.4,1.68,3.52,3.52,0,0,1-1.06,1.21,5.12,5.12,0,0,1-1.58.74,6.87,6.87,0,0,1-1.9.26,6.78,6.78,0,0,1-2-.27,4.71,4.71,0,0,1-1.55-.78,3.64,3.64,0,0,1-1-1.22,3.45,3.45,0,0,1-.37-1.62,3.59,3.59,0,0,1,1.42-2.95,4.64,4.64,0,0,1,1.54-.77A6.74,6.74,0,0,1,223,1.79a6.57,6.57,0,0,1,2,.3,4.83,4.83,0,0,1,1.56.83,3.56,3.56,0,0,1,1,1.26A3.68,3.68,0,0,1,227.94,5.78Zm5.61,16.87H222.82a3.67,3.67,0,0,1-2.17-.58,2,2,0,0,1-.82-1.71V16.72h2.69v2.92q0,.63.66.63h10.37ZM225.4,5.76a1.59,1.59,0,0,0-.68-1.38A2.88,2.88,0,0,0,223,3.9a3,3,0,0,0-1.79.46,1.61,1.61,0,0,0-.63,1.4,1.54,1.54,0,0,0,.7,1.36,3,3,0,0,0,1.72.46,2.73,2.73,0,0,0,.92-.15,2.38,2.38,0,0,0,.76-.39,1.88,1.88,0,0,0,.52-.57A1.45,1.45,0,0,0,225.4,5.76Zm1,8.09h4.27v-12h2.69V17.69H230.7V15.84h-4.27Z"/><path class="cls-1" d="M246,13.24c-.13-.17-.27-.33-.4-.51s-.26-.34-.38-.5l-.83-1a12.75,12.75,0,0,0,2.69-1,12.09,12.09,0,0,0,1.18-.67,9,9,0,0,0,1-.75,8.92,8.92,0,0,0,1.53-1.75,6.05,6.05,0,0,0,.83-2h-6.45V2.71h9.7a10.88,10.88,0,0,1-.6,3.68,9.9,9.9,0,0,1-1.78,3.05,10.66,10.66,0,0,1-1.28,1.23,11.38,11.38,0,0,1-1.52,1.06A15.21,15.21,0,0,1,246,13.24Zm14.22,5.07a4.51,4.51,0,0,1-.45,2.05,4.81,4.81,0,0,1-1.22,1.54,5.57,5.57,0,0,1-1.82,1,7.41,7.41,0,0,1-4.47,0,5.51,5.51,0,0,1-1.82-1,4.61,4.61,0,0,1-1.23-1.54,4.54,4.54,0,0,1-.44-2,4.81,4.81,0,0,1,.44-2.08,4.33,4.33,0,0,1,1.23-1.54,5.62,5.62,0,0,1,1.82-.95,7.66,7.66,0,0,1,2.23-.32,7.1,7.1,0,0,1,2.24.34,5.57,5.57,0,0,1,1.82,1,4.81,4.81,0,0,1,1.22,1.54A4.5,4.5,0,0,1,260.24,18.31Zm-2.74,0a2.38,2.38,0,0,0-.19-.93,2.66,2.66,0,0,0-.56-.82,2.83,2.83,0,0,0-.94-.58,3.43,3.43,0,0,0-1.3-.23,3.47,3.47,0,0,0-1.3.23,2.7,2.7,0,0,0-.93.59,2.45,2.45,0,0,0-.56.82,2.3,2.3,0,0,0-.19.92,2.23,2.23,0,0,0,.19.92,2.35,2.35,0,0,0,.56.82,2.58,2.58,0,0,0,.93.6,3.47,3.47,0,0,0,1.3.22,3.44,3.44,0,0,0,1.3-.22,2.71,2.71,0,0,0,.94-.6,2.66,2.66,0,0,0,.56-.82A2.23,2.23,0,0,0,257.5,18.31Zm2.92-9.63V13h-2.7V1.88h2.7V6.3h3.14V8.68Z"/><path class="cls-1" d="M278,12.07h-8a3.68,3.68,0,0,1-2.18-.59A2,2,0,0,1,267,9.74v-7h2.69V9.15q0,.63.66.63H278Zm4.11,10.47H272.05a3.67,3.67,0,0,1-2.17-.59,2,2,0,0,1-.82-1.72V14.16h13.05Zm-2.69-2.38V16.54h-7.66v3c0,.42.21.63.65.63Zm2.69-11.48v4.24h-2.69v-11h2.69V6.3h3.14V8.68Z"/><path class="cls-1" d="M47.59,32.72h-1l-1-4.21-1.06,4.21H43.6L42.19,27H43l1.06,4.35,1-4.34h1l1.05,4.33,1-4.34H49Z"/><path class="cls-1" d="M58.33,32.72V30.15H55.67v2.57H54.8V27h.87v2.31h2.66V27h.86v5.7Z"/><path class="cls-1" d="M65.53,32.72V27h.86v5.7Z"/><path class="cls-1" d="M75,27.82v4.91h-.88v-4.9H72.32V27h4.53v.8Z"/><path class="cls-1" d="M82.77,32.72V27h4v.8H83.65v1.57h3v.78h-3v1.74h3.18v.8Z"/><path class="cls-1" d="M104.94,27.84a3,3,0,0,1,.71,2,3.07,3.07,0,0,1-.71,2,2.38,2.38,0,0,1-1.93.82h-2V27h2A2.41,2.41,0,0,1,104.94,27.84Zm-.7,3.49a2.59,2.59,0,0,0,0-2.92,1.63,1.63,0,0,0-1.37-.59h-1v4.1h1A1.6,1.6,0,0,0,104.24,31.33Z"/><path class="cls-1" d="M115.23,32.72l-1.6-2.27h-1.06v2.28h-.87V27H114a2.07,2.07,0,0,1,1.38.46,1.47,1.47,0,0,1,.56,1.2,1.55,1.55,0,0,1-.37,1,1.83,1.83,0,0,1-.94.63l1.64,2.37Zm-.52-3.34a.81.81,0,0,0,.34-.69.75.75,0,0,0-.31-.65,1.21,1.21,0,0,0-.73-.22h-1.44v1.81H114A1.23,1.23,0,0,0,114.71,29.38Z"/><path class="cls-1" d="M122.06,32.72V27h4v.8h-3.12v1.57h3v.78h-3v1.74h3.19v.8Z"/><path class="cls-1" d="M136.29,32.73l-.55-1.37H133.1l-.54,1.37h-.89L133.92,27h1l2.26,5.72ZM134.42,28l-1,2.54h2Z"/><path class="cls-1" d="M147.5,32.72V28.91l-1.32,3.81h-1l-1.31-3.81v3.82H143V27h1l1.64,4.61L147.31,27h1v5.72Z"/><path class="cls-1" d="M166.75,27.84a3,3,0,0,1,.71,2,3,3,0,0,1-.71,2,2.36,2.36,0,0,1-1.92.82h-2V27h2A2.39,2.39,0,0,1,166.75,27.84Zm-.7,3.49a2.59,2.59,0,0,0,0-2.92,1.59,1.59,0,0,0-1.36-.59h-1v4.1h1A1.57,1.57,0,0,0,166.05,31.33Z"/><path class="cls-1" d="M173.52,32.72V27h4v.8h-3.12v1.57h3v.78h-3v1.74h3.18v.8Z"/><path class="cls-1" d="M187.07,32.72l-2.58-4.45v4.46h-.87V27h1l2.59,4.44V27h.85v5.7Z"/><path class="cls-1" d="M196.7,27.82v4.91h-.88v-4.9H194V27h4.52v.8Z"/><path class="cls-1" d="M208.59,32.73,208,31.36H205.4l-.55,1.37H204L206.21,27h1l2.27,5.72ZM206.72,28l-1,2.54h2Z"/><path class="cls-1" d="M215.31,32.72V27h.87v4.9h2.95v.8Z"/><path class="cls-1" d="M237,28.77a2.11,2.11,0,0,0-.46-.74,1.66,1.66,0,0,0-2.28.25,2.6,2.6,0,0,0-.45,1.6,2.64,2.64,0,0,0,.45,1.6,1.43,1.43,0,0,0,1.23.61,1.36,1.36,0,0,0,1-.39,2,2,0,0,0,.48-.84H238a3.19,3.19,0,0,1-.74,1.35,2.17,2.17,0,0,1-1.71.67,2.37,2.37,0,0,1-1.92-.83,3.31,3.31,0,0,1-.7-2.17,3.26,3.26,0,0,1,.7-2.16,2.4,2.4,0,0,1,1.92-.83,2.22,2.22,0,0,1,1.73.65,2.67,2.67,0,0,1,.72,1.23Z"/><path class="cls-1" d="M244,32.72V27h.87v4.9h2.95v.8Z"/><path class="cls-1" d="M253.68,32.72V27h.85v5.7Z"/><path class="cls-1" d="M264.32,32.72l-2.58-4.45v4.46h-.87V27h1l2.59,4.44V27h.85v5.7Z"/><path class="cls-1" d="M271.66,32.72V27h.86v5.7Z"/><path class="cls-1" d="M282.7,28.77a2,2,0,0,0-.46-.74,1.43,1.43,0,0,0-1.05-.34,1.45,1.45,0,0,0-1.23.59,2.6,2.6,0,0,0-.45,1.6,2.64,2.64,0,0,0,.45,1.6,1.44,1.44,0,0,0,1.23.61,1.36,1.36,0,0,0,1.05-.39,2,2,0,0,0,.48-.84h.92a3.09,3.09,0,0,1-.74,1.35,2.15,2.15,0,0,1-1.71.67,2.37,2.37,0,0,1-1.92-.83,3.31,3.31,0,0,1-.7-2.17,3.26,3.26,0,0,1,.7-2.16,2.4,2.4,0,0,1,1.92-.83,2.22,2.22,0,0,1,1.73.65,2.67,2.67,0,0,1,.72,1.23Z"/><path class="cls-1" d="M33,16.15a.59.59,0,0,1-.59.6.6.6,0,0,1,0-1.2A.59.59,0,0,1,33,16.15Z"/><path class="cls-1" d="M3.64,16.15a.6.6,0,1,1-.6-.6A.6.6,0,0,1,3.64,16.15Z"/><path class="cls-2" d="M17.7,35.4A17.7,17.7,0,1,1,35.4,17.7,17.72,17.72,0,0,1,17.7,35.4ZM17.7.33A17.37,17.37,0,1,0,35.07,17.7,17.39,17.39,0,0,0,17.7.33Z"/><path class="cls-2" d="M17.7,29.86A12.16,12.16,0,1,1,29.86,17.7,12.17,12.17,0,0,1,17.7,29.86Zm0-24A11.83,11.83,0,1,0,29.53,17.7,11.85,11.85,0,0,0,17.7,5.87Z"/><path class="cls-3" d="M18.73,21a3,3,0,0,1-.12.77,1.18,1.18,0,0,1-.34.57,1,1,0,0,1-.72.22,1,1,0,0,1-.69-.24,1.39,1.39,0,0,1-.37-.6,3,3,0,0,1-.12-.78c0-.29,0-.55,0-.8v-9.3H13.85v9.27a7.83,7.83,0,0,1,0,.81,3.91,3.91,0,0,1-.16.8,1.38,1.38,0,0,1-.36.6.87.87,0,0,1-.65.24,1.06,1.06,0,0,1-.74-.22,1.31,1.31,0,0,1-.37-.6,3,3,0,0,1-.12-.76c0-.28,0-.55,0-.82V10.84H9v9.37a6.83,6.83,0,0,0,.77,3.52A2.91,2.91,0,0,0,12.49,25a2.94,2.94,0,0,0,1.63-.41,3,3,0,0,0,1-1.1,2.27,2.27,0,0,0,1,1.1,3.24,3.24,0,0,0,1.7.41,4.74,4.74,0,0,0,1-.1V20.19C18.74,20.45,18.73,20.72,18.73,21Z"/><path class="cls-4" d="M26.11,12.17a5,5,0,0,0-3.94-1.34H18.74V24.91H22.2a5.09,5.09,0,0,0,3.91-1.31,6,6,0,0,0,1.2-4.15V16A5.55,5.55,0,0,0,26.11,12.17Zm-1.32,7.45a3.15,3.15,0,0,1-.57,2.12,2.64,2.64,0,0,1-2,.63h-1v-9h.94a2.75,2.75,0,0,1,2,.62,2.63,2.63,0,0,1,.58,1.88Z"/><path class="cls-1" d="M5.17,12.64l-.37-.21.47-.84-.48-.26a1.08,1.08,0,0,1-.2.16,1.06,1.06,0,0,1-.25.09.87.87,0,0,1-.28,0,1,1,0,0,1-.29-.11.7.7,0,0,1-.19-.15.79.79,0,0,1-.14-.18l-.16.29-.36-.2.4-.72-.4-.23.24-.43.41.23L4,9.38l.36.2-.15.29a.83.83,0,0,1,.22,0,.92.92,0,0,1,.23.09.78.78,0,0,1,.24.19A.58.58,0,0,1,5,10.4a.56.56,0,0,1,0,.25.74.74,0,0,1,0,.26l.47.26c0-.08.07-.17.1-.26l.09-.28a2.33,2.33,0,0,0,0-.28,1.22,1.22,0,0,0,0-.27L3.75,9,4,8.54l1.18.66.29-.51.37.21-.29.51,1.71,1L7,10.79l-.87-.49a1.61,1.61,0,0,1,0,.37,3,3,0,0,1-.12.4c-.05.13-.11.27-.17.4l-.2.39ZM4.4,10.36a.43.43,0,0,0-.33,0,.39.39,0,0,0-.26.2.37.37,0,0,0,0,.32.43.43,0,0,0,.21.25.49.49,0,0,0,.17.06h.17l.15-.06A.69.69,0,0,0,4.59,11a.37.37,0,0,0,0-.17.29.29,0,0,0,0-.16,1.09,1.09,0,0,0-.08-.15Z"/><path class="cls-1" d="M10.08,6a1,1,0,0,1-.42.14.9.9,0,0,1-.4,0,1.09,1.09,0,0,1-.35-.19,1.13,1.13,0,0,1-.26-.31,1,1,0,0,1-.14-.38.86.86,0,0,1,0-.39.83.83,0,0,1,.16-.36A1,1,0,0,1,9,4.16,1.18,1.18,0,0,1,9.44,4a1.33,1.33,0,0,1,.4,0,1,1,0,0,1,.34.19,1,1,0,0,1,.27.31,1.09,1.09,0,0,1,.14.38,1.07,1.07,0,0,1,0,.4.83.83,0,0,1-.16.36A1.24,1.24,0,0,1,10.08,6ZM10,4.79a.71.71,0,0,0-.36-.33.53.53,0,0,0-.44,0A.51.51,0,0,0,9,4.87a.8.8,0,0,0,.47.8.47.47,0,0,0,.44,0,.54.54,0,0,0,.27-.36A.76.76,0,0,0,10,4.79Zm2.42,1.26L12,6.29,10.14,3.06l.41-.24Z"/><path class="cls-1" d="M19.41,4.15v.42L16,4.51V4.09ZM19,3.21v.43l-2,0a.64.64,0,0,1-.38-.13.4.4,0,0,1-.13-.33l0-1.59L19,1.6V2L17,2v.39l1.91,0v.41L17,2.79v.28c0,.08,0,.11.11.11Z"/><path class="cls-1" d="M26,6.85l-.21.36L22.9,5.49l.22-.37Zm-1.21-3.7,2.1,1.24-.21.36L25,3.76l-.44.75a.1.1,0,0,0,0,.09.19.19,0,0,0,.06.07l1.66,1L26.08,6,24.36,5a.7.7,0,0,1-.28-.29.35.35,0,0,1,0-.34Z"/><path class="cls-1" d="M29.54,12.67l-.87-1.56a.67.67,0,0,1-.1-.39.31.31,0,0,1,.19-.27l.87-.49,1.14,2Zm.13-.63.49-.27-.66-1.19-.4.22c-.06,0-.07.08,0,.15Zm1.44-1.5L30.5,9.45l-.21.12c-.05,0-.06.08,0,.14l.67,1.21-.34.19-.71-1.27a.62.62,0,0,1-.1-.38.38.38,0,0,1,.2-.27l.63-.35.61,1.09.26-.15-.61-1.09.35-.2L32.08,10Zm-.18,1.35-.23-.42,1.8-1,.23.42Z"/><path class="cls-1" d="M2.08,22.79,2,22.29,4,21.19H1.68l-.13-.5,2.81-1.5.11.44L2.34,20.77l2.41,0,.13.51L2.75,22.37l2.41,0,.11.43Z"/><path class="cls-1" d="M4.26,27.1l1.17-.75-.77-1.21-1.17.75-.26-.4,2.6-1.66.26.4L5,24.9l.77,1.22,1.06-.68.25.4-2.6,1.65Z"/><path class="cls-1" d="M6,29.2,8.19,27l.33.33L6.35,29.52Z"/><path class="cls-1" d="M10.52,29.41,9.09,31.65l-.4-.26,1.42-2.23-.82-.53.23-.36,2.07,1.31-.24.37Z"/><path class="cls-1" d="M11.88,33.05l.91-2.94,2.06.64-.13.41-1.61-.5-.25.81L14.4,32l-.13.41-1.54-.48-.27.91,1.64.5L14,33.7Z"/><path class="cls-1" d="M21,31.08a1.78,1.78,0,0,1,.37,2.17,1.28,1.28,0,0,1-.95.62l-1.05.18-.53-3,1.06-.19A1.34,1.34,0,0,1,21,31.08Zm0,1.93a1.31,1.31,0,0,0,.1-.82,1.28,1.28,0,0,0-.37-.74.91.91,0,0,0-.79-.19l-.51.09.38,2.19.51-.09A.89.89,0,0,0,20.94,33Z"/><path class="cls-1" d="M25.66,32.05l-1.32-.72-.52.25.55,1.11L24,32.9l-1.36-2.77,1.13-.56a1.13,1.13,0,0,1,.78-.1.82.82,0,0,1,.56.45.85.85,0,0,1,.06.59,1,1,0,0,1-.31.52l1.37.76Zm-1.05-1.5a.47.47,0,0,0-.31-.66.64.64,0,0,0-.4.07l-.7.34.43.88.67-.33A.64.64,0,0,0,24.61,30.55Z"/><path class="cls-1" d="M27.86,30.6,25.8,28.3l1.61-1.44.29.32-1.26,1.13.57.63,1.2-1.07.28.31-1.2,1.08.63.7,1.29-1.15.28.32Z"/><path class="cls-1" d="M32.17,25.47l-.79-.14-.75,1.22.47.64-.25.41-2-2.67.29-.46,3.27.59ZM29.46,25l.88,1.18.57-.91Z"/><path class="cls-1" d="M33.85,20.69l-2-.49,1.83,1.18-.12.52-2.18.2,2,.49-.11.46-3-.74.13-.55L33,21.5l-2.21-1.45L31,19.5l3,.75Z"/></svg>